<svg xmlns="http://www.w3.org/2000/svg" viewBox="0 0 100 200" preserveAspectRatio="xMidYMid meet">
  <polygon class="head" data-slug="head" points="50.6128 0 46.1191 0.85106383 41.2170 5.53191489 40.8085 12.7659574 45.3021 20 55.5149 20 58.7830 13.6170213 59.1915 4.68085106 55.5149 1.27659574" />
  <polygon class="trapezius" data-slug="trapezius" points="45.0532 21.7021277 47.8234 21.7021277 47.4277 38.2978723 47.8234 64.6808511 39.1170 53.1914894 36.3468 40.8510638 32.3894 36.5957447 39.9085 33.1914894 44.2617 27.2340426" />
  <polygon class="trapezius" data-slug="trapezius" points="52.1766 21.7021277 55.3426 21.7021277 56.1340 27.2340426 60.0915 32.7659574 67.6106 36.5957447 63.6532 40.4255319 60.8830 53.1914894 52.1766 64.6808511 52.9681 38.2978723" />
  <polygon class="back-deltoids" data-slug="back-deltoids" points="30.8064 37.0212766 24.8702 39.1489362 19.7255 44.2553191 20.5170 53.6170213 26.0574 49.3617021 28.8277 46.3829787" />
  <polygon class="back-deltoids" data-slug="back-deltoids" points="69.5894 37.0212766 76.3170 39.5744681 80.2745 44.6808511 79.4830 53.6170213 73.1511 48.9361702 70.7766 45.106383" />
  <polygon class="upper-back" data-slug="upper-back" points="32.3894 38.7234043 29.6191 48.9361702 30.0149 55.3191489 35.1596 75.3191489 47.4277 71.0638298 47.4277 66.3829787 37.5340 54.0425532 34.7638 41.2765957" />
  <polygon class="upper-back" data-slug="upper-back" points="67.6106 38.7234043 70.3809 49.3617021 69.9851 56.1702128 64.8404 75.3191489 52.5723 71.0638298 52.5723 66.3829787 62.4660 54.4680851 65.2362 41.7021277" />
  <polygon class="triceps" data-slug="triceps" points="28.4319 49.787234 20.1213 55.7446809 16.9553 72.3404255 18.9340 81.7021277 23.6830 63.8297872 28.4319 55.7446809" />
  <polygon class="triceps" data-slug="triceps" points="71.9638 50.212766 79.8787 55.7446809 83.4404 73.1914894 81.0660 82.1276596 75.9213 62.9787234 71.5681 55.7446809" />
  <polygon class="triceps" data-slug="triceps" points="28.4319 58.2978723 28.4319 68.5106383 24.8702 75.3191489 21.3085 77.4468085 24.4745 65.5319149" />
  <polygon class="triceps" data-slug="triceps" points="71.1723 58.2978723 75.1298 64.6808511 78.2957 77.4468085 74.7340 75.3191489 71.1723 68.9361702" />
  <polygon class="lower-back" data-slug="lower-back" points="47.6596 72.7659574 34.4681 77.0212766 35.3191 83.4042553 49.3617 102.12766 46.8085 82.9787234" />
  <polygon class="lower-back" data-slug="lower-back" points="52.3404 72.7659574 65.5319 77.0212766 64.6809 83.4042553 50.6383 102.12766 53.1915 83.8297872" />
  <polygon class="forearm" data-slug="forearm" points="84.2000 75.7446809 88.6000 83.4042553 90.6000 94.0425532 97.0000 106.382979 93.4000 104.255319 85.8000 89.3617021 82.2000 83.8297872" />
  <polygon class="forearm" data-slug="forearm" points="15.8000 75.7446809 11.4000 83.8297872 9.4000 93.6170213 3.0000 106.382979 6.6000 104.255319 14.6000 88.5106383 17.8000 82.9787234" />
  <polygon class="forearm" data-slug="forearm" points="79.4000 79.5744681 75.8000 77.8723404 77.4000 84.6808511 88.6000 103.829787 90.6000 108.93617 91.8000 104.680851" />
  <polygon class="forearm" data-slug="forearm" points="20.6000 79.5744681 23.8000 77.8723404 22.6000 84.2553191 11.8000 102.978723 9.4000 108.510638 7.8000 104.680851" />
  <polygon class="gluteal" data-slug="gluteal" points="44.0426 99.5744681 27.8383 108.510638 27.3617 118.723404 29.2681 125.957447 46.9021 121.276596 49.2851 114.893617" />
  <polygon class="gluteal" data-slug="gluteal" points="55.9574 99.1489362 51.1915 114.468085 52.6213 120.851064 70.2553 125.957447 72.1617 119.148936 71.6851 108.510638" />
  <polygon class="adductor" data-slug="adductor" points="47.8553 122.978723 44.0426 122.978723 40.2298 125.531915 44.5191 144.255319 48.3319 135.744681 48.8085 129.361702" />
  <polygon class="adductor" data-slug="adductor" points="52.1447 122.553191 56.4340 123.404255 60.2468 125.957447 55.4809 144.255319 52.1447 136.170213 51.1915 129.361702" />
  <polygon class="hamstring" data-slug="hamstring" points="27.4617 122.12766 29.7383 129.361702 35.6574 125.957447 34.2915 135.319149 33.3809 150.212766 27.9170 158.297872 27.4617 146.808511 26.0957 141.276596 25.6404 131.489362" />
  <polygon class="hamstring" data-slug="hamstring" points="72.9936 121.702128 70.7170 128.93617 64.7979 125.957447 66.6191 136.595745 67.5298 150.212766 72.5383 158.297872 72.9936 147.659574 74.3596 142.12766 75.2702 131.914894" />
  <polygon class="hamstring" data-slug="hamstring" points="37.9340 125.531915 43.8532 145.957447 39.7553 166.808511 35.2021 152.765957 36.1128 135.319149" />
  <polygon class="hamstring" data-slug="hamstring" points="62.5213 125.531915 64.3426 136.170213 65.2532 153.191489 60.7000 166.808511 56.6021 146.382979" />
  <polygon class="knees" data-slug="knees" points="34.4681 153.191489 31.0638 159.148936 33.6170 166.382979 37.4468 162.553191" />
  <polygon class="knees" data-slug="knees" points="66.3830 153.617021 62.9787 162.978723 66.8085 166.382979 69.3617 159.148936" />
  <polygon class="calves" data-slug="calves" points="29.3617 160.425532 28.5106 167.234043 24.6809 179.574468 23.8298 192.765957 25.5319 197.021277 28.5106 193.191489 29.7872 180 31.9149 171.06383 31.9149 166.808511" />
  <polygon class="calves" data-slug="calves" points="37.4468 165.106383 35.3191 167.659574 33.1915 171.914894 31.0638 180.425532 30.2128 191.914894 34.0426 200 38.7234 190.638298 39.1489 168.93617" />
  <polygon class="calves" data-slug="calves" points="62.9787 165.106383 61.2766 168.510638 61.7021 190.638298 66.3830 199.574468 70.6383 191.914894 68.9362 179.574468 66.8085 170.212766" />
  <polygon class="calves" data-slug="calves" points="70.6383 160.425532 72.3404 168.510638 75.7447 179.148936 76.5957 192.765957 74.4681 196.595745 72.3404 193.617021 70.6383 179.574468 68.0851 168.085106" />
  <polygon class="left-soleus" data-slug="left-soleus" points="28.5106 195.744681 30.2128 195.744681 33.6170 201.702128 30.6383 220 28.5106 213.617021 26.8085 198.297872" />
  <polygon class="right-soleus" data-slug="right-soleus" points="69.7872 195.744681 71.9149 195.744681 73.6170 198.297872 71.9149 213.191489 70.2128 219.574468 67.2340 202.12766" />
</svg>
