<svg xmlns="http://www.w3.org/2000/svg" viewBox="0 0 100 200" preserveAspectRatio="xMidYMid meet">
  <polygon class="head" data-slug="head" points="50.6382979 0 45.9574468 0.85106383 40.8510638 5.53191489 40.4255319 12.7659574 45.106383 20 55.7446809 20 59.1489362 13.6170213 59.5744681 4.68085106 55.7446809 1.27659574" />
  <polygon class="trapezius" data-slug="trapezius" points="44.6808511 21.7021277 47.6595745 21.7021277 47.2340426 38.2978723 47.6595745 64.6808511 38.2978723 53.1914894 35.3191489 40.8510638 31.0638298 36.5957447 39.1489362 33.1914894 43.8297872 27.2340426" />
  <polygon class="trapezius" data-slug="trapezius" points="52.3404255 21.7021277 55.7446809 21.7021277 56.5957447 27.2340426 60.8510638 32.7659574 68.9361702 36.5957447 64.6808511 40.4255319 61.7021277 53.1914894 52.3404255 64.6808511 53.1914894 38.2978723" />
  <polygon class="shoulders_rear" data-slug="shoulders_rear" points="25.1915 38.4113 22.9787 39.1489 17.4468 44.2553 18.2979 53.6170 24.2553 49.3617 25.1915 48.4255" fill="none" stroke="none" stroke-width="0" style="cursor:pointer"/>
<polygon class="shoulders_side" data-slug="shoulders_side" points="29.3617 37.0213 25.1915 38.4113 25.1915 48.4255 27.2340 46.3830" fill="none" stroke="none" stroke-width="0" style="cursor:pointer"/>
  <polygon class="shoulders_rear" data-slug="shoulders_rear" points="75.0851 38.4406 78.2979 39.5745 82.5532 44.6809 81.7021 53.6170 75.0851 49.0678" fill="none" stroke="none" stroke-width="0" style="cursor:pointer"/>
<polygon class="shoulders_side" data-slug="shoulders_side" points="71.0638 37.0213 75.0851 38.4406 75.0851 49.0678 74.8936 48.9362 72.3404 45.1064" fill="none" stroke="none" stroke-width="0" style="cursor:pointer"/>
  <polygon class="lats" data-slug="lats" points="31.0638 38.7234 28.0851 48.9362 28.5106 55.3191 34.0426 75.3191 34.7872 75.0789 34.7872 46.2918 33.6170 41.2766" fill="none" stroke="none" stroke-width="0" style="cursor:pointer"/>
<polygon class="rhomboids" data-slug="rhomboids" points="34.7872 75.0789 47.2340 71.0638 47.2340 66.3830 36.5957 54.0426 34.7872 46.2918" fill="none" stroke="none" stroke-width="0" style="cursor:pointer"/>
  <polygon class="lats" data-slug="lats" points="68.9362 38.7234 71.9149 49.3617 71.4894 56.1702 65.9574 75.3191 65.2128 75.0789 65.2128 46.7173 66.3830 41.7021" fill="none" stroke="none" stroke-width="0" style="cursor:pointer"/>
<polygon class="rhomboids" data-slug="rhomboids" points="65.2128 75.0789 52.7660 71.0638 52.7660 66.3830 63.4043 54.4681 65.2128 46.7173" fill="none" stroke="none" stroke-width="0" style="cursor:pointer"/>
  <polygon class="triceps" data-slug="triceps" points="26.8085106 49.787234 17.8723404 55.7446809 14.4680851 72.3404255 16.5957447 81.7021277 21.7021277 63.8297872 26.8085106 55.7446809" />
  <polygon class="triceps" data-slug="triceps" points="73.6170213 50.212766 82.1276596 55.7446809 85.9574468 73.1914894 83.4042553 82.1276596 77.8723404 62.9787234 73.1914894 55.7446809" />
  <polygon class="triceps" data-slug="triceps" points="26.8085106 58.2978723 26.8085106 68.5106383 22.9787234 75.3191489 19.1489362 77.4468085 22.5531915 65.5319149" />
  <polygon class="triceps" data-slug="triceps" points="72.7659574 58.2978723 77.0212766 64.6808511 80.4255319 77.4468085 76.5957447 75.3191489 72.7659574 68.9361702" />
  <polygon class="lower-back" data-slug="lower-back" points="47.6595745 72.7659574 34.4680851 77.0212766 35.3191489 83.4042553 49.3617021 102.12766 46.8085106 82.9787234" />
  <polygon class="lower-back" data-slug="lower-back" points="52.3404255 72.7659574 65.5319149 77.0212766 64.6808511 83.4042553 50.6382979 102.12766 53.1914894 83.8297872" />
  <polygon class="forearm" data-slug="forearm" points="86.3829787 75.7446809 91.0638298 83.4042553 93.1914894 94.0425532 100 106.382979 96.1702128 104.255319 88.0851064 89.3617021 84.2553191 83.8297872" />
  <polygon class="forearm" data-slug="forearm" points="13.6170213 75.7446809 8.93617021 83.8297872 6.80851064 93.6170213 0 106.382979 3.82978723 104.255319 12.3404255 88.5106383 15.7446809 82.9787234" />
  <polygon class="forearm" data-slug="forearm" points="81.2765957 79.5744681 77.4468085 77.8723404 79.1489362 84.6808511 91.0638298 103.829787 93.1914894 108.93617 94.4680851 104.680851" />
  <polygon class="forearm" data-slug="forearm" points="18.7234043 79.5744681 22.1276596 77.8723404 20.8510638 84.2553191 9.36170213 102.978723 6.80851064 108.510638 5.10638298 104.680851" />
  <polygon class="gluteal" data-slug="gluteal" points="44.6808511 99.5744681 30.212766 108.510638 29.787234 118.723404 31.4893617 125.957447 47.2340426 121.276596 49.3617021 114.893617" />
  <polygon class="gluteal" data-slug="gluteal" points="55.3191489 99.1489362 51.0638298 114.468085 52.3404255 120.851064 68.0851064 125.957447 69.787234 119.148936 69.3617021 108.510638" />
  <polygon class="adductor" data-slug="adductor" points="48.0851064 122.978723 44.6808511 122.978723 41.2765957 125.531915 45.106383 144.255319 48.5106383 135.744681 48.9361702 129.361702" />
  <polygon class="adductor" data-slug="adductor" points="51.9148936 122.553191 55.7446809 123.404255 59.1489362 125.957447 54.893617 144.255319 51.9148936 136.170213 51.0638298 129.361702" />
  <polygon class="hamstring" data-slug="hamstring" points="28.9361702 122.12766 31.0638298 129.361702 36.5957447 125.957447 35.3191489 135.319149 34.4680851 150.212766 29.3617021 158.297872 28.9361702 146.808511 27.6595745 141.276596 27.2340426 131.489362" />
  <polygon class="hamstring" data-slug="hamstring" points="71.4893617 121.702128 69.3617021 128.93617 63.8297872 125.957447 65.5319149 136.595745 66.3829787 150.212766 71.0638298 158.297872 71.4893617 147.659574 72.7659574 142.12766 73.6170213 131.914894" />
  <polygon class="hamstring" data-slug="hamstring" points="38.7234043 125.531915 44.2553191 145.957447 40.4255319 166.808511 36.1702128 152.765957 37.0212766 135.319149" />
  <polygon class="hamstring" data-slug="hamstring" points="61.7021277 125.531915 63.4042553 136.170213 64.2553191 153.191489 60 166.808511 56.1702128 146.382979" />
  <polygon class="knees" data-slug="knees" points="34.4680851 153.191489 31.0638298 159.148936 33.6170213 166.382979 37.4468085 162.553191" />
  <polygon class="knees" data-slug="knees" points="66.3829787 153.617021 62.9787234 162.978723 66.8085106 166.382979 69.3617021 159.148936" />
  <polygon class="calves_gastro" data-slug="calves_gastro" points="29.3617 160.4255 28.5106 167.2340 24.6809 179.5745 24.3816 184.2128 29.3795 184.2128 29.7872 180.0000 31.9149 171.0638 31.9149 166.8085" fill="none" stroke="none" stroke-width="0" style="cursor:pointer"/>
<polygon class="calves_soleus" data-slug="calves_soleus" points="24.3816 184.2128 23.8298 192.7660 25.5319 197.0213 28.5106 193.1915 29.3795 184.2128" fill="none" stroke="none" stroke-width="0" style="cursor:pointer"/>
  <polygon class="calves_gastro" data-slug="calves_gastro" points="37.4468 165.1064 35.3191 167.6596 33.1915 171.9149 31.0638 180.4255 30.5185 187.7872 38.7793 187.7872 39.1489 168.9362" fill="none" stroke="none" stroke-width="0" style="cursor:pointer"/>
<polygon class="calves_soleus" data-slug="calves_soleus" points="30.5185 187.7872 30.2128 191.9149 34.0426 200.0000 38.7234 190.6383 38.7793 187.7872" fill="none" stroke="none" stroke-width="0" style="cursor:pointer"/>
  <polygon class="calves_gastro" data-slug="calves_gastro" points="62.9787 165.1064 61.2766 168.5106 61.6420 187.5106 70.0308 187.5106 68.9362 179.5745 66.8085 170.2128" fill="none" stroke="none" stroke-width="0" style="cursor:pointer"/>
<polygon class="calves_soleus" data-slug="calves_soleus" points="61.6420 187.5106 61.7021 190.6383 66.3830 199.5745 70.6383 191.9149 70.0308 187.5106" fill="none" stroke="none" stroke-width="0" style="cursor:pointer"/>
  <polygon class="calves_gastro" data-slug="calves_gastro" points="70.6383 160.4255 72.3404 168.5106 75.7447 179.1489 76.0439 183.9362 71.1670 183.9362 70.6383 179.5745 68.0851 168.0851" fill="none" stroke="none" stroke-width="0" style="cursor:pointer"/>
<polygon class="calves_soleus" data-slug="calves_soleus" points="76.0439 183.9362 76.5957 192.7660 74.4681 196.5957 72.3404 193.6170 71.1670 183.9362" fill="none" stroke="none" stroke-width="0" style="cursor:pointer"/>
  <polygon class="left-soleus" data-slug="left-soleus" points="28.5106383 195.744681 30.212766 195.744681 33.6170213 201.702128 30.6382979 220 28.5106383 213.617021 26.8085106 198.297872" />
  <polygon class="right-soleus" data-slug="right-soleus" points="69.787234 195.744681 71.9148936 195.744681 73.6170213 198.297872 71.9148936 213.191489 70.212766 219.574468 67.2340426 202.12766" />
</svg>
