<svg xmlns="http://www.w3.org/2000/svg" viewBox="0 0 100 200" preserveAspectRatio="xMidYMid meet">
  <polygon class="chest_upper" data-slug="chest_upper" points="51.8367 41.6327 51.3420 49.7959 69.7551 49.7959 70.6122 47.3469 62.0408 41.6327" fill="none" stroke="none" stroke-width="0" style="cursor:pointer"/>
<polygon class="chest_lower" data-slug="chest_lower" points="51.3420 49.7959 51.0204 55.1020 57.9592 57.9592 67.7551 55.5102 69.7551 49.7959" fill="none" stroke="none" stroke-width="0" style="cursor:pointer"/>
  <polygon class="chest_upper" data-slug="chest_upper" points="29.7959 46.5306 30.4267 50.0000 48.0038 50.0000 47.7551 42.0408 37.5510 42.0408" fill="none" stroke="none" stroke-width="0" style="cursor:pointer"/>
<polygon class="chest_lower" data-slug="chest_lower" points="30.4267 50.0000 31.4286 55.5102 40.8163 57.9592 48.1633 55.1020 48.0038 50.0000" fill="none" stroke="none" stroke-width="0" style="cursor:pointer"/>
  <polygon class="obliques" data-slug="obliques" points="68.5714286 63.2653061 67.3469388 57.1428571 58.7755102 59.5918367 60 64.0816327 60.4081633 83.2653061 65.7142857 78.7755102 66.5306122 69.7959184" />
  <polygon class="obliques" data-slug="obliques" points="33.877551 78.3673469 33.0612245 71.8367347 31.0204082 63.2653061 32.244898 57.1428571 40.8163265 59.1836735 39.1836735 63.2653061 39.1836735 83.6734694" />
  <polygon class="abs" data-slug="abs" points="56.3265306 59.1836735 57.9591837 64.0816327 58.3673469 77.9591837 58.3673469 92.6530612 56.3265306 98.3673469 55.1020408 104.081633 51.4285714 107.755102 51.0204082 84.4897959 50.6122449 67.3469388 51.0204082 57.1428571" />
  <polygon class="abs" data-slug="abs" points="43.6734694 58.7755102 48.5714286 57.1428571 48.9795918 67.3469388 48.5714286 84.4897959 48.1632653 107.346939 44.4897959 103.673469 40.8163265 91.4285714 40.8163265 78.3673469 41.2244898 64.4897959" />
  <polygon class="biceps" data-slug="biceps" points="16.7346939 68.1632653 17.9591837 71.4285714 22.8571429 66.122449 28.9795918 53.877551 27.755102 49.3877551 20.4081633 55.9183673" />
  <polygon class="biceps" data-slug="biceps" points="71.4285714 49.3877551 70.2040816 54.6938776 76.3265306 66.122449 81.6326531 71.8367347 82.8571429 68.9795918 78.7755102 55.5102041" />
  <polygon class="triceps" data-slug="triceps" points="69.3877551 55.5102041 69.3877551 61.6326531 75.9183673 72.6530612 77.5510204 70.2040816 75.5102041 67.3469388" />
  <polygon class="triceps" data-slug="triceps" points="22.4489796 69.3877551 29.7959184 55.5102041 29.7959184 60.8163265 22.8571429 73.0612245" />
  <polygon class="neck" data-slug="neck" points="55.5102041 23.6734694 50.6122449 33.4693878 50.6122449 39.1836735 61.6326531 40 70.6122449 44.8979592 69.3877551 36.7346939 63.2653061 35.1020408 58.3673469 30.6122449" />
  <polygon class="neck" data-slug="neck" points="28.9795918 44.8979592 30.2040816 37.1428571 36.3265306 35.1020408 41.2244898 30.2040816 44.4897959 24.4897959 48.9795918 33.877551 48.5714286 39.1836735 37.9591837 39.5918367" />
  <polygon class="shoulders_front" data-slug="shoulders_front" points="78.3673 53.0612 79.5918 47.7551 79.1837 41.2245 75.9184 37.9592 73.7633 37.2408 73.7633 49.2696" fill="none" stroke="none" stroke-width="0" style="cursor:pointer"/>
<polygon class="shoulders_side" data-slug="shoulders_side" points="73.7633 37.2408 71.0204 36.3265 72.2449 42.8571 71.4286 47.3469 73.7633 49.2696" fill="none" stroke="none" stroke-width="0" style="cursor:pointer"/>
  <polygon class="shoulders_front" data-slug="shoulders_front" points="25.8286 49.2696 21.2245 53.0612 20.0000 47.7551 20.4082 40.8163 24.4898 37.1429 25.8286 37.1429" fill="none" stroke="none" stroke-width="0" style="cursor:pointer"/>
<polygon class="shoulders_side" data-slug="shoulders_side" points="28.1633 47.3469 25.8286 49.2696 25.8286 37.1429 28.5714 37.1429 26.9388 43.2653" fill="none" stroke="none" stroke-width="0" style="cursor:pointer"/>
  <polygon class="head" data-slug="head" points="42.4489796 2.85714286 40 11.8367347 42.0408163 19.5918367 46.122449 23.2653061 49.7959184 25.3061224 54.6938776 22.4489796 57.5510204 19.1836735 59.1836735 10.2040816 57.1428571 2.44897959 49.7959184 0" />
  <polygon class="abductors" data-slug="abductors" points="52.6530612 110.204082 54.2857143 124.897959 60 110.204082 62.0408163 100 64.8979592 94.2857143 60 92.6530612 56.7346939 104.489796" />
  <polygon class="abductors" data-slug="abductors" points="47.755102 110.612245 44.8979592 125.306122 42.0408163 115.918367 40.4081633 113.061224 39.5918367 107.346939 37.9591837 102.44898 34.6938776 93.877551 39.5918367 92.244898 41.6326531 99.1836735 43.6734694 105.306122" />
  <polygon class="quadriceps" data-slug="quadriceps" points="34.6938776 98.7755102 37.1428571 108.163265 37.1428571 127.755102 34.2857143 137.142857 31.0204082 132.653061 29.3877551 120 28.1632653 111.428571 29.3877551 100.816327 32.244898 94.6938776" />
  <polygon class="quadriceps" data-slug="quadriceps" points="63.2653061 105.714286 64.4897959 100 66.9387755 94.6938776 70.2040816 101.22449 71.0204082 111.836735 68.1632653 133.061224 65.3061224 137.55102 62.4489796 128.571429 62.0408163 111.428571" />
  <polygon class="quadriceps" data-slug="quadriceps" points="38.7755102 129.387755 38.3673469 112.244898 41.2244898 118.367347 44.4897959 129.387755 42.8571429 135.102041 40 146.122449 36.3265306 146.530612 35.5102041 140" />
  <polygon class="quadriceps" data-slug="quadriceps" points="59.5918367 145.714286 55.5102041 128.979592 60.8163265 113.877551 61.2244898 130.204082 64.0816327 139.591837 62.8571429 146.530612" />
  <polygon class="quadriceps" data-slug="quadriceps" points="32.6530612 138.367347 26.5306122 145.714286 25.7142857 136.734694 25.7142857 127.346939 26.9387755 114.285714 29.3877551 133.469388" />
  <polygon class="quadriceps" data-slug="quadriceps" points="71.8367347 113.061224 73.877551 124.081633 73.877551 140.408163 72.6530612 145.714286 66.5306122 138.367347 70.2040816 133.469388" />
  <polygon class="knees" data-slug="knees" points="33.877551 140 34.6938776 143.265306 35.5102041 147.346939 36.3265306 151.020408 35.1020408 156.734694 29.7959184 156.734694 27.3469388 152.653061 27.3469388 147.346939 30.2040816 144.081633" />
  <polygon class="knees" data-slug="knees" points="65.7142857 140 72.244898 147.755102 72.244898 152.244898 69.7959184 157.142857 64.8979592 156.734694 62.8571429 151.020408" />
  <polygon class="calves_gastro" data-slug="calves_gastro" points="71.4286 160.4082 73.4694 153.4694 76.7347 161.2245 79.5918 167.7551 78.7934 180.7959 73.3251 180.7959" fill="none" stroke="none" stroke-width="0" style="cursor:pointer"/>
<polygon class="calves_soleus" data-slug="calves_soleus" points="78.7934 180.7959 78.3673 187.7551 79.5918 195.5102 74.6939 195.5102 73.3251 180.7959" fill="none" stroke="none" stroke-width="0" style="cursor:pointer"/>
  <polygon class="calves_gastro" data-slug="calves_gastro" points="26.2032 181.0816 27.7551 164.8980 28.1633 160.4082 26.1224 154.2857 24.8980 157.5510 22.4490 161.6327 20.8163 167.7551 21.6159 181.0816" fill="none" stroke="none" stroke-width="0" style="cursor:pointer"/>
<polygon class="calves_soleus" data-slug="calves_soleus" points="24.8980 194.6939 26.2032 181.0816 21.6159 181.0816 22.0408 188.1633 20.8163 195.5102" fill="none" stroke="none" stroke-width="0" style="cursor:pointer"/>
  <polygon class="calves_gastro" data-slug="calves_gastro" points="71.6303 182.2449 69.7959 159.1837 65.3061 158.3673 64.0816 162.4490 64.0816 165.3061 65.7143 177.1429 67.6855 182.2449" fill="none" stroke="none" stroke-width="0" style="cursor:pointer"/>
<polygon class="calves_soleus" data-slug="calves_soleus" points="72.6531 195.1020 71.6303 182.2449 67.6855 182.2449" fill="none" stroke="none" stroke-width="0" style="cursor:pointer"/>
  <polygon class="calves_gastro" data-slug="calves_gastro" points="35.5102 158.3673 35.9184 162.4490 35.9184 166.9388 35.1020 172.2449 35.1020 176.7347 32.2779 181.9796 27.9887 181.9796 28.1633 180.4082 28.5714 175.5102 28.9796 169.7959 29.7959 164.0816 30.2041 158.7755" fill="none" stroke="none" stroke-width="0" style="cursor:pointer"/>
<polygon class="calves_soleus" data-slug="calves_soleus" points="32.2779 181.9796 32.2449 182.0408 30.6122 187.3469 26.9388 194.6939 27.3469 187.7551 27.9887 181.9796" fill="none" stroke="none" stroke-width="0" style="cursor:pointer"/>
  <polygon class="forearm" data-slug="forearm" points="6.12244898 88.5714286 10.2040816 75.1020408 14.6938776 70.2040816 16.3265306 74.2857143 19.1836735 73.4693878 4.48979592 97.5510204 0 100" />
  <polygon class="forearm" data-slug="forearm" points="84.4897959 69.7959184 83.2653061 73.4693878 80 73.0612245 95.1020408 98.3673469 100 100.408163 93.4693878 89.3877551 89.7959184 76.3265306" />
  <polygon class="forearm" data-slug="forearm" points="77.5510204 72.244898 77.5510204 77.5510204 80.4081633 84.0816327 85.3061224 89.7959184 92.244898 101.22449 94.6938776 99.5918367" />
  <polygon class="forearm" data-slug="forearm" points="6.93877551 101.22449 13.4693878 90.6122449 18.7755102 84.0816327 21.6326531 77.1428571 21.2244898 71.8367347 4.89795918 98.7755102" />
</svg>
