<svg xmlns="http://www.w3.org/2000/svg" viewBox="0 0 100 200" preserveAspectRatio="xMidYMid meet">
  <polygon class="chest" data-slug="chest" points="51.6898 41.6326531 50.9388 55.1020408 57.3224 57.9591837 66.3347 55.5102041 68.9633 47.3469388 61.0776 41.6326531" />
  <polygon class="chest" data-slug="chest" points="31.4122 46.5306122 32.9143 55.5102041 41.5510 57.9591837 48.3102 55.1020408 47.9347 42.0408163 38.5469 42.0408163" />
  <polygon class="obliques" data-slug="obliques" points="66.3429 63.2653061 65.2653 57.1428571 57.7224 59.5918367 58.8000 64.0816327 59.1592 83.2653061 63.8286 78.7755102 64.5469 69.7959184" />
  <polygon class="obliques" data-slug="obliques" points="35.8122 78.3673469 35.0939 71.8367347 33.2980 63.2653061 34.3755 57.1428571 41.9184 59.1836735 40.4816 63.2653061 40.4816 83.6734694" />
  <polygon class="abs" data-slug="abs" points="55.5673 59.1836735 57.0041 64.0816327 57.3633 77.9591837 57.3633 92.6530612 55.5673 98.3673469 54.4898 104.081633 51.2571 107.755102 50.8980 84.4897959 50.5388 67.3469388 50.8980 57.1428571" />
  <polygon class="abs" data-slug="abs" points="44.4327 58.7755102 48.7429 57.1428571 49.1020 67.3469388 48.7429 84.4897959 48.3837 107.346939 45.1510 103.673469 41.9184 91.4285714 41.9184 78.3673469 42.2776 64.4897959" />
  <polygon class="biceps" data-slug="biceps" points="19.0633 68.1632653 20.2020 71.4285714 24.7571 66.122449 30.4510 53.877551 29.3122 49.3877551 22.4796 55.9183673" />
  <polygon class="biceps" data-slug="biceps" points="69.9286 49.3877551 68.7898 54.6938776 74.4837 66.122449 79.4184 71.8367347 80.5571 68.9795918 76.7612 55.5102041" />
  <polygon class="triceps" data-slug="triceps" points="68.0306 55.5102041 68.0306 61.6326531 74.1041 72.6530612 75.6224 70.2040816 73.7245 67.3469388" />
  <polygon class="triceps" data-slug="triceps" points="24.3776 69.3877551 31.2102 55.5102041 31.2102 60.8163265 24.7571 73.0612245" />
  <polygon class="neck" data-slug="neck" points="55.2347 23.6734694 50.5816 33.4693878 50.5816 39.1836735 61.0510 40 69.5816 44.8979592 68.4184 36.7346939 62.6020 35.1020408 57.9490 30.6122449" />
  <polygon class="neck" data-slug="neck" points="30.0306 44.8979592 31.1939 37.1428571 37.0102 35.1020408 41.6633 30.2040816 44.7653 24.4897959 49.0306 33.877551 48.6429 39.1836735 38.5612 39.5918367" />
  <polygon class="front-deltoids" data-slug="front-deltoids" points="76.3816 53.0612245 77.5204 47.755102 77.1408 41.2244898 74.1041 37.9591837 69.5490 36.3265306 70.6878 42.8571429 69.9286 47.3469388" />
  <polygon class="front-deltoids" data-slug="front-deltoids" points="29.6918 47.3469388 23.2388 53.0612245 22.1000 47.755102 22.4796 40.8163265 26.2755 37.1428571 30.0714 37.1428571 28.5531 43.2653061" />
  <polygon class="head" data-slug="head" points="42.7510 2.85714286 40.4000 11.8367347 42.3592 19.5918367 46.2776 23.2653061 49.8041 25.3061224 54.5061 22.4489796 57.2490 19.1836735 58.8163 10.2040816 56.8571 2.44897959 49.8041 0" />
  <polygon class="abductors" data-slug="abductors" points="52.9980 110.204082 54.8429 124.897959 61.3000 110.204082 63.6061 100 66.8347 94.2857143 61.3000 92.6530612 57.6102 104.489796" />
  <polygon class="abductors" data-slug="abductors" points="47.4633 110.612245 44.2347 125.306122 41.0061 115.918367 39.1612 113.061224 38.2388 107.346939 36.3939 102.44898 32.7041 93.877551 38.2388 92.244898 40.5449 99.1836735 42.8510 105.306122" />
  <polygon class="quadriceps" data-slug="quadriceps" points="33.6224 98.7755102 36.2429 108.163265 36.2429 127.755102 33.1857 137.142857 29.6918 132.653061 27.9449 120 26.6347 111.428571 27.9449 100.816327 31.0020 94.6938776" />
  <polygon class="quadriceps" data-slug="quadriceps" points="64.1939 105.714286 65.5041 100 68.1245 94.6938776 71.6184 101.22449 72.4918 111.836735 69.4347 133.061224 66.3776 137.55102 63.3204 128.571429 62.8837 111.428571" />
  <polygon class="quadriceps" data-slug="quadriceps" points="37.9898 129.387755 37.5531 112.244898 40.6102 118.367347 44.1041 129.387755 42.3571 135.102041 39.3000 146.122449 35.3694 146.530612 34.4959 140" />
  <polygon class="quadriceps" data-slug="quadriceps" points="60.2633 145.714286 55.8959 128.979592 61.5735 113.877551 62.0102 130.204082 65.0673 139.591837 63.7571 146.530612" />
  <polygon class="quadriceps" data-slug="quadriceps" points="31.4388 138.367347 24.8878 145.714286 24.0143 136.734694 24.0143 127.346939 25.3245 114.285714 27.9449 133.469388" />
  <polygon class="quadriceps" data-slug="quadriceps" points="73.3653 113.061224 75.5490 124.081633 75.5490 140.408163 74.2388 145.714286 67.6878 138.367347 71.6184 133.469388" />
  <polygon class="knees" data-slug="knees" points="33.8776 140 34.6939 143.265306 35.5102 147.346939 36.3265 151.020408 35.1020 156.734694 29.7959 156.734694 27.3469 152.653061 27.3469 147.346939 30.2041 144.081633" />
  <polygon class="knees" data-slug="knees" points="65.7143 140 72.2449 147.755102 72.2449 152.244898 69.7959 157.142857 64.8980 156.734694 62.8571 151.020408" />
  <polygon class="calves" data-slug="calves" points="71.4286 160.408163 73.4694 153.469388 76.7347 161.22449 79.5918 167.755102 78.3673 187.755102 79.5918 195.510204 74.6939 195.510204" />
  <polygon class="calves" data-slug="calves" points="24.8980 194.693878 27.7551 164.897959 28.1633 160.408163 26.1224 154.285714 24.8980 157.55102 22.4490 161.632653 20.8163 167.755102 22.0408 188.163265 20.8163 195.510204" />
  <polygon class="calves" data-slug="calves" points="72.6531 195.102041 69.7959 159.183673 65.3061 158.367347 64.0816 162.44898 64.0816 165.306122 65.7143 177.142857" />
  <polygon class="calves" data-slug="calves" points="35.5102 158.367347 35.9184 162.44898 35.9184 166.938776 35.1020 172.244898 35.1020 176.734694 32.2449 182.040816 30.6122 187.346939 26.9388 194.693878 27.3469 187.755102 28.1633 180.408163 28.5714 175.510204 28.9796 169.795918 29.7959 164.081633 30.2041 158.77551" />
  <polygon class="forearm" data-slug="forearm" points="8.7551 88.5714286 12.5918 75.1020408 16.8122 70.2040816 18.3469 74.2857143 21.0327 73.4693878 7.2204 97.5510204 3.0000 100" />
  <polygon class="forearm" data-slug="forearm" points="82.4204 69.7959184 81.2694 73.4693878 78.2000 73.0612245 92.3959 98.3673469 97.0000 100.408163 90.8612 89.3877551 87.4082 76.3265306" />
  <polygon class="forearm" data-slug="forearm" points="75.8980 72.244898 75.8980 77.5510204 78.5837 84.0816327 83.1878 89.7959184 89.7102 101.22449 92.0122 99.5918367" />
  <polygon class="forearm" data-slug="forearm" points="9.5224 101.22449 15.6612 90.6122449 20.6490 84.0816327 23.3347 77.1428571 22.9510 71.8367347 7.6041 98.7755102" />
</svg>
