<svg viewBox="0 0 100 220" xmlns="http://www.w3.org/2000/svg">
  <polygon class="head" points="42.4489796 2.85714286 40 11.8367347 42.0408163 19.5918367 46.122449 23.2653061 49.7959184 25.3061224 54.6938776 22.4489796 57.5510204 19.1836735 59.1836735 10.2040816 57.1428571 2.44897959 49.7959184 0" fill="#1a1528" stroke="rgba(255,255,255,0.15)" stroke-width="0.8"/>
  <polygon class="neck" data-slug="neck" points="55.5102041 23.6734694 50.6122449 33.4693878 50.6122449 39.1836735 61.6326531 40 70.6122449 44.8979592 69.3877551 36.7346939 63.2653061 35.1020408 58.3673469 30.6122449" fill="#C8A24C" stroke="rgba(0,0,0,0.3)" stroke-width="0.5" style="cursor:pointer"/>
  <polygon class="neck" data-slug="neck" points="28.9795918 44.8979592 30.2040816 37.1428571 36.3265306 35.1020408 41.2244898 30.2040816 44.4897959 24.4897959 48.9795918 33.877551 48.5714286 39.1836735 37.9591837 39.5918367" fill="#C8A24C" stroke="rgba(0,0,0,0.3)" stroke-width="0.5" style="cursor:pointer"/>
  <polygon class="shoulders_front" data-slug="shoulders_front" points="78.3673469 53.0612245 79.5918367 47.755102 79.1836735 41.2244898 75.9183673 37.9591837 71.0204082 36.3265306 72.244898 42.8571429 71.4285714 47.3469388" fill="#C8A24C" stroke="rgba(0,0,0,0.3)" stroke-width="0.5" style="cursor:pointer"/>
  <polygon class="shoulders_front" data-slug="shoulders_front" points="28.1632653 47.3469388 21.2244898 53.0612245 20 47.755102 20.4081633 40.8163265 24.4897959 37.1428571 28.5714286 37.1428571 26.9387755 43.2653061" fill="#C8A24C" stroke="rgba(0,0,0,0.3)" stroke-width="0.5" style="cursor:pointer"/>
  <polygon class="shoulders_side" data-slug="shoulders_side" points="79.5918367 47.755102 82 50 84 58 81.6326531 71.8367347 78.7755102 55.5102041 78.3673469 53.0612245" fill="#C8A24C" stroke="rgba(0,0,0,0.3)" stroke-width="0.5" style="cursor:pointer"/>
  <polygon class="shoulders_side" data-slug="shoulders_side" points="20 47.755102 18 50 16 58 17.9591837 71.4285714 22.8571429 66.122449 21.2244898 53.0612245" fill="#C8A24C" stroke="rgba(0,0,0,0.3)" stroke-width="0.5" style="cursor:pointer"/>
  <polygon class="chest_upper" data-slug="chest_upper" points="51.8367347 41.6326531 51.0204082 48 57.9591837 50 67.755102 47 70.6122449 47.3469388 62.0408163 41.6326531" fill="#C8A24C" stroke="rgba(0,0,0,0.3)" stroke-width="0.5" style="cursor:pointer"/>
  <polygon class="chest_upper" data-slug="chest_upper" points="29.7959184 46.5306122 31.4285714 48 40.8163265 50 48.1632653 47 47.755102 42.0408163 37.5510204 42.0408163" fill="#C8A24C" stroke="rgba(0,0,0,0.3)" stroke-width="0.5" style="cursor:pointer"/>
  <polygon class="chest_lower" data-slug="chest_lower" points="51.0204082 48 51.0204082 55.1020408 57.9591837 57.9591837 67.755102 55.5102041 70.6122449 47.3469388 67.755102 47 57.9591837 50" fill="#C8A24C" stroke="rgba(0,0,0,0.3)" stroke-width="0.5" style="cursor:pointer"/>
  <polygon class="chest_lower" data-slug="chest_lower" points="31.4285714 48 31.4285714 55.5102041 40.8163265 57.9591837 48.1632653 55.1020408 47.755102 42.0408163 40.8163265 50" fill="#C8A24C" stroke="rgba(0,0,0,0.3)" stroke-width="0.5" style="cursor:pointer"/>
  <polygon class="biceps" data-slug="biceps" points="16.7346939 68.1632653 17.9591837 71.4285714 22.8571429 66.122449 28.9795918 53.877551 27.755102 49.3877551 20.4081633 55.9183673" fill="#C8A24C" stroke="rgba(0,0,0,0.3)" stroke-width="0.5" style="cursor:pointer"/>
  <polygon class="biceps" data-slug="biceps" points="71.4285714 49.3877551 70.2040816 54.6938776 76.3265306 66.122449 81.6326531 71.8367347 82.8571429 68.9795918 78.7755102 55.5102041" fill="#C8A24C" stroke="rgba(0,0,0,0.3)" stroke-width="0.5" style="cursor:pointer"/>
  <polygon class="triceps" data-slug="triceps" points="69.3877551 55.5102041 69.3877551 61.6326531 75.9183673 72.6530612 77.5510204 70.2040816 75.5102041 67.3469388" fill="#C8A24C" stroke="rgba(0,0,0,0.3)" stroke-width="0.5" style="cursor:pointer"/>
  <polygon class="triceps" data-slug="triceps" points="22.4489796 69.3877551 29.7959184 55.5102041 29.7959184 60.8163265 22.8571429 73.0612245" fill="#C8A24C" stroke="rgba(0,0,0,0.3)" stroke-width="0.5" style="cursor:pointer"/>
  <polygon class="forearms" data-slug="forearms" points="6.12244898 88.5714286 10.2040816 75.1020408 14.6938776 70.2040816 16.3265306 74.2857143 19.1836735 73.4693878 4.48979592 97.5510204 0 100" fill="#C8A24C" stroke="rgba(0,0,0,0.3)" stroke-width="0.5" style="cursor:pointer"/>
  <polygon class="forearms" data-slug="forearms" points="84.4897959 69.7959184 83.2653061 73.4693878 80 73.0612245 95.1020408 98.3673469 100 100.408163 93.4693878 89.3877551 89.7959184 76.3265306" fill="#C8A24C" stroke="rgba(0,0,0,0.3)" stroke-width="0.5" style="cursor:pointer"/>
  <polygon class="forearms" data-slug="forearms" points="77.5510204 72.244898 77.5510204 77.5510204 80.4081633 84.0816327 85.3061224 89.7959184 92.244898 101.22449 94.6938776 99.5918367" fill="#C8A24C" stroke="rgba(0,0,0,0.3)" stroke-width="0.5" style="cursor:pointer"/>
  <polygon class="forearms" data-slug="forearms" points="6.93877551 101.22449 13.4693878 90.6122449 18.7755102 84.0816327 21.6326531 77.1428571 21.2244898 71.8367347 4.89795918 98.7755102" fill="#C8A24C" stroke="rgba(0,0,0,0.3)" stroke-width="0.5" style="cursor:pointer"/>
  <polygon class="abs" data-slug="abs" points="56.3265306 59.1836735 57.9591837 64.0816327 58.3673469 77.9591837 58.3673469 92.6530612 56.3265306 98.3673469 55.1020408 104.081633 51.4285714 107.755102 51.0204082 84.4897959 50.6122449 67.3469388 51.0204082 57.1428571" fill="#C8A24C" stroke="rgba(0,0,0,0.3)" stroke-width="0.5" style="cursor:pointer"/>
  <polygon class="abs" data-slug="abs" points="43.6734694 58.7755102 48.5714286 57.1428571 48.9795918 67.3469388 48.5714286 84.4897959 48.1632653 107.346939 44.4897959 103.673469 40.8163265 91.4285714 40.8163265 78.3673469 41.2244898 64.4897959" fill="#C8A24C" stroke="rgba(0,0,0,0.3)" stroke-width="0.5" style="cursor:pointer"/>
  <polygon class="obliques" data-slug="obliques" points="68.5714286 63.2653061 67.3469388 57.1428571 58.7755102 59.5918367 60 64.0816327 60.4081633 83.2653061 65.7142857 78.7755102 66.5306122 69.7959184" fill="#C8A24C" stroke="rgba(0,0,0,0.3)" stroke-width="0.5" style="cursor:pointer"/>
  <polygon class="obliques" data-slug="obliques" points="33.877551 78.3673469 33.0612245 71.8367347 31.0204082 63.2653061 32.244898 57.1428571 40.8163265 59.1836735 39.1836735 63.2653061 39.1836735 83.6734694" fill="#C8A24C" stroke="rgba(0,0,0,0.3)" stroke-width="0.5" style="cursor:pointer"/>
  <polygon class="hip_flexors" data-slug="hip_flexors" points="52.6530612 107.755102 56 114 57 120 50 122 43 120 44 114 47.755102 107.755102" fill="#C8A24C" stroke="rgba(0,0,0,0.3)" stroke-width="0.5" style="cursor:pointer"/>
  <polygon class="adductors" data-slug="adductors" points="52.6530612 110.204082 54.2857143 124.897959 60 110.204082 62.0408163 100 64.8979592 94.2857143 60 92.6530612 56.7346939 104.489796" fill="#C8A24C" stroke="rgba(0,0,0,0.3)" stroke-width="0.5" style="cursor:pointer"/>
  <polygon class="adductors" data-slug="adductors" points="47.755102 110.612245 44.8979592 125.306122 42.0408163 115.918367 40.4081633 113.061224 39.5918367 107.346939 37.9591837 102.44898 34.6938776 93.877551 39.5918367 92.244898 41.6326531 99.1836735 43.6734694 105.306122" fill="#C8A24C" stroke="rgba(0,0,0,0.3)" stroke-width="0.5" style="cursor:pointer"/>
  <polygon class="quadriceps" data-slug="quadriceps" points="34.6938776 98.7755102 37.1428571 108.163265 37.1428571 127.755102 34.2857143 137.142857 31.0204082 132.653061 29.3877551 120 28.1632653 111.428571 29.3877551 100.816327 32.244898 94.6938776" fill="#C8A24C" stroke="rgba(0,0,0,0.3)" stroke-width="0.5" style="cursor:pointer"/>
  <polygon class="quadriceps" data-slug="quadriceps" points="63.2653061 105.714286 64.4897959 100 66.9387755 94.6938776 70.2040816 101.22449 71.0204082 111.836735 68.1632653 133.061224 65.3061224 137.55102 62.4489796 128.571429 62.0408163 111.428571" fill="#C8A24C" stroke="rgba(0,0,0,0.3)" stroke-width="0.5" style="cursor:pointer"/>
  <polygon class="quadriceps" data-slug="quadriceps" points="38.7755102 129.387755 38.3673469 112.244898 41.2244898 118.367347 44.4897959 129.387755 42.8571429 135.102041 40 146.122449 36.3265306 146.530612 35.5102041 140" fill="#C8A24C" stroke="rgba(0,0,0,0.3)" stroke-width="0.5" style="cursor:pointer"/>
  <polygon class="quadriceps" data-slug="quadriceps" points="59.5918367 145.714286 55.5102041 128.979592 60.8163265 113.877551 61.2244898 130.204082 64.0816327 139.591837 62.8571429 146.530612" fill="#C8A24C" stroke="rgba(0,0,0,0.3)" stroke-width="0.5" style="cursor:pointer"/>
  <polygon class="quadriceps" data-slug="quadriceps" points="32.6530612 138.367347 26.5306122 145.714286 25.7142857 136.734694 25.7142857 127.346939 26.9387755 114.285714 29.3877551 133.469388" fill="#C8A24C" stroke="rgba(0,0,0,0.3)" stroke-width="0.5" style="cursor:pointer"/>
  <polygon class="quadriceps" data-slug="quadriceps" points="71.8367347 113.061224 73.877551 124.081633 73.877551 140.408163 72.6530612 145.714286 66.5306122 138.367347 70.2040816 133.469388" fill="#C8A24C" stroke="rgba(0,0,0,0.3)" stroke-width="0.5" style="cursor:pointer"/>
  <polygon class="knees" points="33.877551 140 34.6938776 143.265306 35.5102041 147.346939 36.3265306 151.020408 35.1020408 156.734694 29.7959184 156.734694 27.3469388 152.653061 27.3469388 147.346939 30.2040816 144.081633" fill="#1a1528" stroke="rgba(255,255,255,0.15)" stroke-width="0.8"/>
  <polygon class="knees" points="65.7142857 140 72.244898 147.755102 72.244898 152.244898 69.7959184 157.142857 64.8979592 156.734694 62.8571429 151.020408" fill="#1a1528" stroke="rgba(255,255,255,0.15)" stroke-width="0.8"/>
  <polygon class="calves_gastro" data-slug="calves_gastro" points="71.4285714 160.408163 73.4693878 153.469388 76.7346939 161.22449 79.5918367 167.755102 78.3673469 180 74.6938776 180" fill="#C8A24C" stroke="rgba(0,0,0,0.3)" stroke-width="0.5" style="cursor:pointer"/>
  <polygon class="calves_gastro" data-slug="calves_gastro" points="24.8979592 180 27.755102 164.897959 28.1632653 160.408163 26.122449 154.285714 24.8979592 157.55102 22.4489796 161.632653 20.8163265 167.755102 20.8163265 180" fill="#C8A24C" stroke="rgba(0,0,0,0.3)" stroke-width="0.5" style="cursor:pointer"/>
  <polygon class="calves_gastro" data-slug="calves_gastro" points="72.6530612 180 69.7959184 159.183673 65.3061224 158.367347 64.0816327 162.44898 64.0816327 165.306122 65.7142857 177.142857" fill="#C8A24C" stroke="rgba(0,0,0,0.3)" stroke-width="0.5" style="cursor:pointer"/>
  <polygon class="calves_gastro" data-slug="calves_gastro" points="35.5102041 158.367347 35.9183673 162.44898 35.9183673 166.938776 35.1020408 172.244898 35.1020408 176.734694 32.244898 180 27.3469388 180 26.9387755 180 28.5714286 175.510204 28.9795918 169.795918 29.7959184 164.081633 30.2040816 158.77551" fill="#C8A24C" stroke="rgba(0,0,0,0.3)" stroke-width="0.5" style="cursor:pointer"/>
  <polygon class="calves_soleus" data-slug="calves_soleus" points="71.4285714 180 74.6938776 180 78.3673469 187.755102 79.5918367 195.510204 74.6938776 195.510204 71.4285714 188" fill="#C8A24C" stroke="rgba(0,0,0,0.3)" stroke-width="0.5" style="cursor:pointer"/>
  <polygon class="calves_soleus" data-slug="calves_soleus" points="20.8163265 180 20.8163265 195.510204 24.8979592 194.693878 24.8979592 180" fill="#C8A24C" stroke="rgba(0,0,0,0.3)" stroke-width="0.5" style="cursor:pointer"/>
  <polygon class="calves_soleus" data-slug="calves_soleus" points="65.7142857 177.142857 72.6530612 180 72.6530612 195.102041 65.3061224 195" fill="#C8A24C" stroke="rgba(0,0,0,0.3)" stroke-width="0.5" style="cursor:pointer"/>
  <polygon class="calves_soleus" data-slug="calves_soleus" points="32.244898 180 32.244898 182.040816 30.6122449 187.346939 26.9387755 194.693878 27.3469388 180" fill="#C8A24C" stroke="rgba(0,0,0,0.3)" stroke-width="0.5" style="cursor:pointer"/>
  <polygon class="feet" points="18 196 22 205 32 207 33 196" fill="#1a1528" stroke="rgba(255,255,255,0.15)" stroke-width="0.8"/>
  <polygon class="feet" points="68 196 78 205 82 207 83 196" fill="#1a1528" stroke="rgba(255,255,255,0.15)" stroke-width="0.8"/>
</svg>